# xmcd
#
# Track frame offsets: 
#        150
#        15920
#        35574
#        53185
#        75133
#        94773
#        114028
#        128758
#        146120
#        164773
#        186085
#
# Disc length: 2695 seconds
#
# Revision: 7
# Processed by: cddbd v1.5.1PL2 Copyright (c) Steve Scherf et al.
# Submitted via: ExactAudioCopy v0.95a5
#
DISCID=820a850b
DTITLE=陶吉吉 - 太平盛世
DYEAR=2005
DGENRE=POP
TTITLE0=Catherine
TTITLE1=就是爱你
TTITLE2=孙子兵法
TTITLE3=爱我还是爱他
TTITLE4=Susan说
TTITLE5=无缘
TTITLE6=Sula与Lampa的寓言
TTITLE7=2night.藏爱
TTITLE8=她的歌
TTITLE9=爱是个什么东西
TTITLE10=祷告良辰歌
EXTD=
EXTT0=
EXTT1=
EXTT2=
EXTT3=
EXTT4=
EXTT5=
EXTT6=
EXTT7=
EXTT8=
EXTT9=
EXTT10=
PLAYORDER=
